<?xml version="1.0"?>
<svg width="937" height="937" xmlns="http://www.w3.org/2000/svg" xmlns:svg="http://www.w3.org/2000/svg">
 <title>Lua programming language logo</title>
 <g class="layer">
  <title>Layer 1</title>
  <path d="m880.400024,266.179993a456.670013,456.670013 0 1 1 -158.179993,-175.670006" fill="none" id="svg_1" stroke="#ffffff" stroke-dasharray="39.8522" stroke-width="10.597"/>
  <circle cx="473.5" cy="473.5" fill="#000080" id="svg_2" r="353.21"/>
  <circle cx="619.81" cy="327.2" fill="#fff" id="svg_3" r="103.45"/>
  <circle cx="826.72" cy="120.29" fill="#000080" id="svg_4" r="103.46"/>
  <g fill="#fff" id="svg_5">
   <path d="m377.820007,650.109985l0,-26.067017l-114.440002,0l0,-205.679993l-29.563995,0l0,231.75l144.009979,0" id="svg_6"/>
   <path d="m536.700012,650.109985l0,-166.580017l-26.38501,0l0,91.872009c0,34.015015 -17.802002,56.267029 -45.458984,56.267029c-20.981018,0 -34.333008,-12.716003 -34.333008,-32.743042l0,-115.399994l-26.38501,0l0,125.889984c0,27.657043 20.662994,45.459045 53.08902,45.459045c24.477997,0 40.054993,-8.583191 55.631989,-30.518005l0,25.75l23.84198,0" id="svg_7"/>
   <path d="m730.5,649.469971l0,-20.026978c-2.861023,0.635742 -4.132629,0.635742 -5.722107,0.635742c-9.218994,0 -14.304993,-4.768372 -14.304993,-13.033997l0,-92.824951c0,-29.564026 -21.617004,-45.459015 -62.625,-45.459015c-40.372986,0 -65.169006,15.576996 -66.757996,54.041962l26.703003,0c2.225281,-20.344971 14.304993,-29.563965 39.101013,-29.563965c23.84198,0 37.19397,8.901062 37.19397,24.796021l0,6.993652c0,11.126038 -6.675781,15.89502 -27.656982,18.437988c-37.512024,4.768433 -43.234009,6.040039 -53.406006,10.173035c-19.392029,7.947388 -29.246033,22.888 -29.246033,43.234009c0,30.200012 20.981018,48.002014 54.67804,48.002014c21.299011,0 41.961975,-8.901123 56.584961,-24.478027c2.861023,12.716003 14.305054,21.934998 27.33905,21.934998c5.404175,0 9.536865,-0.635803 18.119995,-2.861084m-46.413025,-56.903015c0,23.84198 -24.159973,39.101013 -49.909973,39.101013c-20.663025,0 -32.743042,-7.311584 -32.743042,-25.432007c0,-17.484009 11.762024,-25.114014 40.055054,-29.246033c27.974976,-3.814697 33.69696,-5.086243 42.597961,-9.218994l0,24.796021" id="svg_8"/>
  </g>
 </g>
</svg>