<?xml version="1.0" standalone="no"?>
<!DOCTYPE svg PUBLIC "-//W3C//DTD SVG 20010904//EN"
 "http://www.w3.org/TR/2001/REC-SVG-20010904/DTD/svg10.dtd">
<svg version="1.0" xmlns="http://www.w3.org/2000/svg"
 width="1276.000000pt" height="1276.000000pt" viewBox="0 0 1276.000000 1276.000000"
 preserveAspectRatio="xMidYMid meet">
<metadata>
Created by potrace 1.11, written by Peter Selinger 2001-2013
</metadata>
<g transform="translate(0.000000,1276.000000) scale(0.100000,-0.100000)"
fill="#000000" stroke="none">
<path d="M0 6380 l0 -6380 6380 0 6380 0 0 6380 0 6380 -6380 0 -6380 0 0
-6380z m9070 5815 c69 -8 129 -15 133 -15 5 0 6 -12 3 -27 -2 -16 -8 -46 -11
-67 l-6 -39 -77 8 c-42 4 -162 10 -267 14 l-190 6 -3 68 -3 67 148 0 c81 0
204 -7 273 -15z m-962 -107 c6 -34 10 -64 7 -66 -2 -2 -57 -15 -122 -29 -65
-14 -180 -44 -255 -67 l-137 -43 -21 60 c-12 32 -18 63 -13 67 20 20 446 135
514 139 11 1 19 -15 27 -61z m3408 41 c283 -52 517 -267 596 -546 28 -100 30
-266 4 -363 -41 -153 -144 -312 -263 -402 -85 -65 -137 -93 -243 -130 -90 -31
-103 -32 -240 -33 -166 0 -236 16 -370 86 -416 216 -531 752 -239 1116 98 123
256 223 414 262 92 22 249 27 341 10z m-1636 -107 c144 -49 390 -152 390 -164
0 -7 -47 -106 -54 -115 -1 -2 -59 22 -129 52 -70 30 -181 74 -247 96 -66 23
-120 46 -120 52 0 18 33 117 40 117 3 0 57 -17 120 -38z m-2800 -298 c18 -30
31 -56 29 -58 -2 -1 -56 -33 -119 -71 -63 -37 -162 -101 -220 -142 l-104 -75
-24 28 c-12 16 -32 41 -42 55 l-19 26 97 69 c96 69 347 224 363 224 4 0 22
-25 39 -56z m1815 -334 c658 -45 1229 -293 1695 -737 330 -314 587 -756 700
-1203 144 -568 83 -1154 -174 -1685 -85 -175 -147 -278 -261 -430 -581 -774
-1592 -1170 -2562 -1005 -736 126 -1361 525 -1763 1128 -613 917 -556 2107
140 2968 85 105 275 294 380 378 425 339 961 549 1500 585 167 12 190 12 345
1z m-2669 -323 l48 -44 -86 -99 c-73 -85 -177 -218 -228 -292 l-15 -21 -57 36
c-50 31 -56 38 -47 55 34 63 313 408 331 408 3 0 28 -20 54 -43z m5634 -758
c61 -120 180 -405 180 -431 0 -10 -123 -49 -130 -41 -3 5 -21 49 -39 98 -18
50 -63 154 -99 233 -35 78 -63 144 -61 146 8 7 104 55 111 56 4 0 22 -27 38
-61z m-6184 -149 c11 0 0 -35 -39 -126 -23 -55 -62 -161 -87 -236 l-44 -135
-55 14 c-31 8 -61 16 -68 18 -18 6 71 277 151 457 l26 58 56 -25 c31 -14 58
-25 60 -25z m6511 -915 c7 -49 15 -170 19 -268 l7 -178 -69 3 -69 3 -6 145
c-4 80 -12 194 -19 253 -7 61 -8 113 -4 117 11 10 58 18 99 16 l30 -1 12 -90z
m-6810 -91 l29 -6 0 -258 -1 -258 -63 -7 c-35 -4 -67 -4 -70 0 -11 10 -15 275
-7 413 l7 122 38 0 c21 0 51 -3 67 -6z m6723 -880 c28 -4 52 -9 54 -13 15 -23
-123 -521 -144 -521 -25 0 -120 43 -120 54 0 7 11 46 25 87 29 84 78 265 95
352 9 43 15 57 26 53 7 -3 36 -8 64 -12z m-6600 -206 c32 -123 90 -294 145
-430 6 -14 -2 -22 -36 -36 -92 -39 -83 -44 -127 70 -78 203 -137 407 -119 413
35 12 85 23 104 24 18 1 24 -7 33 -41z m6230 -793 c28 -14 50 -31 50 -38 0
-26 -184 -308 -278 -426 l-19 -24 -52 39 c-28 21 -51 42 -51 46 0 4 31 50 68
100 69 93 134 192 185 281 15 26 32 47 38 47 5 0 32 -11 59 -25z m-5794 -182
c39 -62 182 -252 239 -319 l35 -41 -52 -43 -51 -44 -44 49 c-80 91 -283 370
-283 389 0 6 103 65 112 66 4 0 24 -26 44 -57z m5127 -661 l48 -49 -103 -86
c-107 -89 -318 -246 -330 -247 -10 0 -77 92 -78 106 0 7 6 14 13 17 21 8 247
180 322 245 39 34 72 61 75 61 3 1 27 -21 53 -47z m-4366 -146 c54 -41 150
-108 214 -149 l117 -74 -30 -49 c-17 -27 -34 -53 -38 -57 -11 -12 -185 98
-336 211 l-124 93 41 50 c23 27 46 49 51 49 4 0 52 -33 105 -74z m3456 -442
c15 -30 25 -59 22 -64 -14 -22 -424 -167 -487 -172 -30 -3 -32 -1 -49 55 -13
42 -14 59 -6 62 279 92 354 119 412 144 39 17 72 30 75 31 3 0 18 -25 33 -56z
m-2501 -58 c73 -24 186 -56 251 -71 64 -15 117 -33 117 -39 -1 -12 -18 -95
-25 -113 -3 -8 -46 -1 -152 27 -150 39 -362 106 -376 119 -7 7 38 121 48 121
2 0 64 -20 137 -44z m1451 -218 c2 -35 1 -67 -4 -72 -4 -5 -129 -11 -278 -14
l-271 -5 0 49 c0 98 -2 96 119 90 58 -3 162 -2 231 2 69 5 141 10 161 10 l37
2 5 -62z m-3411 -919 c316 -34 564 -176 776 -442 75 -95 118 -167 106 -175 -6
-4 -67 -47 -138 -96 -168 -116 -447 -296 -461 -296 -5 0 -39 39 -75 86 -114
152 -193 204 -345 230 -263 46 -461 -77 -482 -298 -13 -143 44 -260 168 -347
77 -54 217 -125 409 -206 173 -74 513 -247 618 -315 256 -166 406 -341 482
-563 45 -132 61 -220 67 -373 14 -343 -76 -596 -286 -804 -275 -273 -690 -398
-1199 -361 -188 14 -270 30 -441 87 -350 118 -572 285 -768 579 -90 134 -90
136 -63 154 43 30 605 354 620 358 10 2 29 -19 55 -59 61 -98 245 -276 330
-319 181 -94 381 -121 581 -80 164 34 285 116 341 229 25 51 28 68 27 152 0
81 -4 104 -26 152 -52 113 -163 194 -439 323 -79 37 -175 80 -214 95 -124 50
-357 165 -455 224 -251 153 -393 304 -499 527 -65 136 -79 194 -93 372 -22
295 26 504 164 712 48 71 153 182 223 234 149 112 356 197 535 221 87 12 369
11 482 -1z m-1880 -376 c3 -192 3 -351 1 -355 -2 -5 -255 -8 -561 -8 l-557 0
0 -1590 0 -1590 -397 0 -398 0 0 1590 0 1590 -557 2 -558 3 -3 300 c-2 165 0
324 3 353 l6 52 1508 0 1508 0 5 -347z"/>
<path d="M9685 10635 c-168 -31 -283 -93 -410 -220 -104 -103 -162 -202 -196
-332 -25 -97 -28 -250 -5 -345 64 -274 285 -492 571 -563 93 -23 266 -24 360
0 118 28 260 104 344 181 163 151 244 333 243 549 -1 203 -69 363 -216 510
-50 50 -117 105 -149 124 -160 94 -362 130 -542 96z"/>
<path d="M6950 8405 l0 -835 535 0 535 0 0 95 0 95 -425 0 -425 0 0 740 0 740
-110 0 -110 0 0 -835z"/>
<path d="M9938 8799 c-204 -17 -330 -102 -378 -256 -11 -36 -20 -78 -20 -94
l0 -29 100 0 c96 0 100 1 100 22 0 35 40 107 74 132 84 64 282 75 390 22 75
-37 99 -77 99 -165 1 -36 -5 -77 -12 -89 -22 -40 -90 -61 -282 -87 -278 -37
-340 -58 -429 -141 -68 -63 -93 -127 -94 -235 0 -77 3 -92 32 -152 38 -76 72
-109 161 -150 55 -26 79 -31 168 -35 60 -3 129 0 165 7 82 16 192 69 250 121
l47 41 14 -33 c8 -18 32 -49 54 -69 54 -48 120 -64 209 -48 l64 11 0 72 0 73
-28 -5 c-41 -6 -100 22 -112 53 -6 16 -10 175 -10 394 0 425 -3 443 -76 521
-91 98 -254 138 -486 119z m369 -754 c-6 -134 -24 -182 -89 -241 -110 -99
-318 -133 -439 -71 -58 30 -81 65 -87 130 -12 149 58 197 356 243 91 14 181
31 201 39 66 24 65 27 58 -100z"/>
<path d="M8220 8285 c0 -471 1 -486 22 -542 27 -75 97 -143 175 -174 44 -17
85 -23 169 -27 183 -7 284 32 392 154 l52 58 0 -92 0 -92 90 0 90 0 0 600 0
600 -100 0 -100 0 0 -362 c0 -385 -6 -441 -50 -529 -32 -62 -86 -116 -148
-146 -49 -24 -69 -28 -142 -28 -76 0 -91 3 -139 30 -32 18 -64 46 -80 69 l-26
40 -3 463 -3 463 -99 0 -100 0 0 -485z"/>
</g>
</svg>
